<?xml version="1.0" encoding="UTF-8" standalone="no"?>
<svg
   xmlns:dc="http://purl.org/dc/elements/1.1/"
   xmlns:cc="http://creativecommons.org/ns#"
   xmlns:rdf="http://www.w3.org/1999/02/22-rdf-syntax-ns#"
   xmlns:svg="http://www.w3.org/2000/svg"
   xmlns="http://www.w3.org/2000/svg"
   version="1.1"
   id="svg4444"
   height="50"
   width="242.42999">
  <defs
     id="defs4446" />
  <metadata
     id="metadata4449">
    <rdf:RDF>
      <cc:Work
         rdf:about="">
        <dc:format>image/svg+xml</dc:format>
        <dc:type
           rdf:resource="http://purl.org/dc/dcmitype/StillImage" />
        <dc:title />
      </cc:Work>
    </rdf:RDF>
  </metadata>
  <g
     transform="translate(-54.82961,-403.79075)"
     id="layer1">
    <g
       transform="matrix(0.83333333,0,0,0.83333333,19.141434,75.631792)"
       id="g4350">
      <g
         id="g3939"
         transform="matrix(0.62317461,0,0,-0.62317461,154.53268,417.16633)"
         style="fill:#ffffff">
        <path
           d="m 0,0 c 3.349,3.36 7.139,5.872 11.356,7.555 4.212,1.666 8.511,2.514 12.887,2.514 4.362,0 8.661,-0.848 12.882,-2.514 C 41.333,5.872 45.121,3.36 48.473,0 l 4.732,-4.73 -9.456,-9.592 -4.87,4.723 c -2.039,2.029 -4.321,3.548 -6.869,4.57 -2.537,1.018 -5.13,1.528 -7.767,1.528 -2.638,0 -5.235,-0.51 -7.778,-1.528 -2.543,-1.022 -4.833,-2.541 -6.861,-4.57 -2.038,-1.942 -3.563,-4.177 -4.575,-6.714 -1.013,-2.537 -1.525,-5.136 -1.525,-7.775 0,-2.647 0.512,-5.239 1.525,-7.776 1.012,-2.539 2.537,-4.834 4.575,-6.873 4.067,-4.066 8.937,-6.088 14.639,-6.088 2.739,0 5.387,0.516 7.924,1.516 2.537,1.021 4.775,2.549 6.712,4.572 l 4.87,4.735 9.456,-9.602 -4.732,-4.729 c -3.352,-3.349 -7.14,-5.861 -11.348,-7.542 -4.221,-1.682 -8.52,-2.512 -12.882,-2.512 -4.376,0 -8.675,0.83 -12.887,2.512 -4.217,1.681 -8.007,4.193 -11.356,7.542 -3.352,3.356 -5.843,7.114 -7.473,11.293 -1.622,4.149 -2.435,8.452 -2.435,12.872 0,4.426 0.813,8.714 2.435,12.886 C -5.843,-7.112 -3.352,-3.351 0,0"
           style="fill:#ffffff;fill-opacity:1;fill-rule:nonzero;stroke:none"
           id="path3941" />
      </g>
      <path
         d="m 201.24959,453.55195 -8.36799,0 0,-42.66004 8.36799,0 0,42.66004 z"
         style="fill:#ffffff;fill-opacity:1;fill-rule:nonzero;stroke:none"
         id="path3943" />
      <g
         id="g3945"
         transform="matrix(0.62317461,0,0,-0.62317461,232.09661,410.89161)"
         style="fill:#ffffff">
        <path
           d="m 0,0 0,-13.57 -6.869,0 c -2.838,0 -5.512,-0.533 -7.999,-1.611 -2.492,-1.058 -4.673,-2.537 -6.558,-4.409 -1.878,-1.888 -3.352,-4.074 -4.415,-6.562 -1.068,-2.485 -1.607,-5.167 -1.607,-8.005 l 0,-34.299 -13.719,0 0,34.299 c 0,4.777 0.883,9.222 2.668,13.339 1.779,4.123 4.244,7.726 7.399,10.82 3.148,3.108 6.794,5.548 10.972,7.327 C -15.956,-0.89 -11.542,0 -6.869,0 L 0,0 z"
           style="fill:#ffffff;fill-opacity:1;fill-rule:nonzero;stroke:none"
           id="path3947" />
      </g>
      <g
         id="g3949"
         transform="matrix(0.62317461,0,0,-0.62317461,240.97261,417.16633)"
         style="fill:#ffffff">
        <path
           d="m 0,0 c 3.36,3.36 7.143,5.872 11.359,7.555 4.218,1.666 8.505,2.514 12.883,2.514 4.379,0 8.67,-0.848 12.879,-2.514 C 41.346,5.872 45.128,3.36 48.488,0 l 4.729,-4.73 -9.455,-9.592 -4.885,4.723 c -2.034,2.029 -4.314,3.548 -6.865,4.57 -2.537,1.018 -5.129,1.528 -7.77,1.528 -2.645,0 -5.237,-0.51 -7.766,-1.528 -2.551,-1.022 -4.834,-2.541 -6.87,-4.57 -2.04,-1.942 -3.559,-4.177 -4.577,-6.714 -1.008,-2.537 -1.513,-5.136 -1.513,-7.775 0,-2.647 0.505,-5.239 1.513,-7.776 1.018,-2.539 2.537,-4.834 4.577,-6.873 4.06,-4.066 8.939,-6.088 14.636,-6.088 2.749,0 5.391,0.516 7.94,1.516 2.53,1.021 4.771,2.549 6.695,4.572 l 4.885,4.735 9.455,-9.602 -4.729,-4.729 c -3.36,-3.349 -7.142,-5.861 -11.367,-7.542 -4.209,-1.682 -8.5,-2.512 -12.879,-2.512 -4.378,0 -8.665,0.83 -12.883,2.512 -4.216,1.681 -7.999,4.193 -11.359,7.542 -3.352,3.356 -5.843,7.114 -7.475,11.293 -1.62,4.149 -2.435,8.452 -2.435,12.872 0,4.426 0.815,8.714 2.435,12.886 C -5.843,-7.112 -3.352,-3.351 0,0"
           style="fill:#ffffff;fill-opacity:1;fill-rule:nonzero;stroke:none"
           id="path3951" />
      </g>
      <path
         d="m 287.78673,453.55195 -8.45772,0 0,-59.7612 8.45772,0 0,59.7612 z"
         style="fill:#ffffff;fill-opacity:1;fill-rule:nonzero;stroke:none"
         id="path3953" />
      <path
         id="path3957"
         style="fill:#f15a29;fill-opacity:1;fill-rule:nonzero;stroke:none"
         d="m 102.22616,423.95614 c 1.11112,-2.56249 2.62793,-4.80779 4.56351,-6.74275 1.92872,-1.93246 4.19521,-3.45737 6.79634,-4.55914 2.59116,-1.10926 5.34684,-1.6645 8.25893,-1.6645 2.97878,0 5.74879,0.55524 8.31627,1.6645 2.56374,1.10177 4.83147,2.62668 6.7926,4.55914 1.96362,1.93496 3.49975,4.18026 4.60838,6.74275 1.10551,2.56935 1.66138,5.33936 1.66138,8.31502 l 0,21.37426 -8.45336,0 0,-21.37426 c 0,-1.77231 -0.33153,-3.43556 -1.00144,-4.98727 -0.66057,-1.54734 -1.58411,-2.91334 -2.74883,-4.08615 -1.1778,-1.17344 -2.55564,-2.09512 -4.13663,-2.75444 -1.58286,-0.66492 -3.26045,-0.99707 -5.03837,-0.99707 -1.76857,0 -3.42933,0.33215 -4.98415,0.99707 -1.55295,0.65932 -2.91209,1.581 -4.08179,2.75444 -1.17406,1.17281 -2.09698,2.53881 -2.76253,4.08615 -0.66057,1.55171 -0.99646,3.21496 -0.99646,4.98727 l 0,21.37426 -8.45399,0 0,-21.37426 c 0,-2.97566 0.55027,-5.74567 1.66014,-8.31502" />
      <g
         id="g3959"
         transform="matrix(0.62317461,0,0,-0.62317461,318.76231,422.5348)"
         style="fill:#ffffff">
        <path
           d="m 0,0 c 0,0 6.824,-2.103 9.643,-9.715 l -21.821,-22.511 c 0,0 -6.631,1.764 -10.002,9.346 L 0,0 z"
           style="fill:#ffffff;fill-opacity:1;fill-rule:nonzero;stroke:none"
           id="path3961" />
      </g>
      <g
         id="g3963"
         transform="matrix(0.62317461,0,0,-0.62317461,325.65736,439.85223)"
         style="fill:#ffffff">
        <path
           d="m 0,0 c -3.711,-5.365 -9.899,-8.886 -16.917,-8.886 -11.354,0 -20.561,9.207 -20.561,20.563 0,11.355 9.207,20.561 20.561,20.561 8.191,0 15.243,-4.8 18.55,-11.731 l 9.476,10.491 C 4.967,39.89 -5.292,45.72 -16.917,45.72 c -18.801,0 -34.042,-15.242 -34.042,-34.043 0,-18.803 15.241,-34.043 34.042,-34.043 12.894,0 24.11,7.167 29.89,17.734 L 0,0 z"
           style="fill:#ffffff;fill-opacity:1;fill-rule:nonzero;stroke:none"
           id="path3965" />
      </g>
      <g
         id="g3967"
         transform="matrix(0.62317461,0,0,-0.62317461,79.691475,422.5354)"
         style="fill:#f15a29">
        <path
           d="M 0,0 C 0,0 6.824,-2.103 9.641,-9.715 L -12.18,-32.226 c 0,0 -6.629,1.764 -10,9.346 L 0,0 z"
           style="fill:#f15a29;fill-opacity:1;fill-rule:nonzero;stroke:none"
           id="path3969" />
      </g>
      <path
         id="path3973"
         style="fill:#f15a29;fill-opacity:1;fill-rule:nonzero;stroke:none"
         d="m 86.585965,439.85283 c -2.312601,3.34333 -6.168805,5.53753 -10.542245,5.53753 -7.075524,0 -12.813093,-5.73757 -12.813093,-12.81434 0,-7.07615 5.737569,-12.81309 12.813093,-12.81309 5.104423,0 9.499051,2.99124 11.559889,7.31046 l 5.905203,-6.53773 c -3.827539,-5.54127 -10.220687,-9.17437 -17.465092,-9.17437 -11.716306,0 -21.21411,9.49842 -21.21411,21.21473 0,11.71755 9.497804,21.21473 21.21411,21.21473 8.035214,0 15.02474,-4.46629 18.626689,-11.05138 l -8.084444,-2.88654 z" />
    </g>
  </g>
</svg>
