<?xml version="1.0" encoding="UTF-8" standalone="no"?>
<svg
   xmlns:dc="http://purl.org/dc/elements/1.1/"
   xmlns:cc="http://creativecommons.org/ns#"
   xmlns:rdf="http://www.w3.org/1999/02/22-rdf-syntax-ns#"
   xmlns:svg="http://www.w3.org/2000/svg"
   xmlns="http://www.w3.org/2000/svg"
   version="1.1"
   id="svg4096"
   height="50"
   width="50">
  <defs
     id="defs4098" />
  <metadata
     id="metadata4101">
    <rdf:RDF>
      <cc:Work
         rdf:about="">
        <dc:format>image/svg+xml</dc:format>
        <dc:type
           rdf:resource="http://purl.org/dc/dcmitype/StillImage" />
        <dc:title />
      </cc:Work>
    </rdf:RDF>
  </metadata>
  <g
     transform="translate(0,-1002.3622)"
     id="layer1">
    <path
       id="path5491"
       d="m 25.000985,1015.208 c -0.23015,0 -0.36032,0.05 -0.55274,0.2422 l -11.34375,11.375 0,0 c -0.19241,0.1944 -0.24219,0.3246 -0.24219,0.5547 0,0.2302 0.0498,0.3603 0.24219,0.5528 l 11.34375,11.3417 c 0.19242,0.1925 0.32259,0.2421 0.55274,0.2421 0.23014,0 0.35718,-0.049 0.55078,-0.2421 l 1.6914,-1.6894 c 0.19494,-0.1949 0.24219,-0.3213 0.24219,-0.543 0,-0.2218 -0.0484,-0.3511 -0.24219,-0.5449 l -5.71484,-5.7129 c -0.26703,-0.2661 -1.49271,-1.4435 -1.49271,-1.4435 0,0 1.71336,-5e-4 2.09037,0 l 14.26757,0 c 0.24103,0 0.35918,-0.048 0.52735,-0.2167 0.16818,-0.1682 0.21679,-0.2863 0.21679,-0.5273 l 0,-2.4337 c 0,-0.2732 -0.0555,-0.3992 -0.21679,-0.5605 -0.16131,-0.1613 -0.2873,-0.2167 -0.56055,-0.2167 l -14.23437,0 c -0.377,5e-4 -2.10605,0.015 -2.10605,0.015 0,0 1.24139,-1.1924 1.50839,-1.4585 l 5.71484,-5.7149 c 0.19493,-0.1949 0.24219,-0.3212 0.24219,-0.543 0,-0.2218 -0.0473,-0.348 -0.24219,-0.5429 l -1.6914,-1.6914 c -0.1936,-0.1936 -0.32064,-0.2422 -0.55078,-0.2422 z"
       style="fill:#ffffff" />
  </g>
</svg>
