<?xml version="1.0" encoding="UTF-8" standalone="no"?>
<svg
   xmlns:dc="http://purl.org/dc/elements/1.1/"
   xmlns:cc="http://creativecommons.org/ns#"
   xmlns:rdf="http://www.w3.org/1999/02/22-rdf-syntax-ns#"
   xmlns:svg="http://www.w3.org/2000/svg"
   xmlns="http://www.w3.org/2000/svg"
   version="1.1"
   id="svg4444"
   height="50"
   width="242.42999">
  <defs
     id="defs4446" />
  <metadata
     id="metadata4449">
    <rdf:RDF>
      <cc:Work
         rdf:about="">
        <dc:format>image/svg+xml</dc:format>
        <dc:type
           rdf:resource="http://purl.org/dc/dcmitype/StillImage" />
        <dc:title />
      </cc:Work>
    </rdf:RDF>
  </metadata>
  
      <path
      d="m 0,0 c 3.36,3.36 7.143,5.872 11.359,7.555 4.218,1.666 8.505,2.514 12.883,2.514 4.379,0 8.67,-0.848 12.879,-2.514 C 41.346,5.872 45.128,3.36 48.488,0 l 4.729,-4.73 -9.455,-9.592 -4.885,4.723 c -2.034,2.029 -4.314,3.548 -6.865,4.57 -2.537,1.018 -5.129,1.528 -7.77,1.528 -2.645,0 -5.237,-0.51 -7.766,-1.528 -2.551,-1.022 -4.834,-2.541 -6.87,-4.57 -2.04,-1.942 -3.559,-4.177 -4.577,-6.714 -1.008,-2.537 -1.513,-5.136 -1.513,-7.775 0,-2.647 0.505,-5.239 1.513,-7.776 1.018,-2.539 2.537,-4.834 4.577,-6.873 4.06,-4.066 8.939,-6.088 14.636,-6.088 2.749,0 5.391,0.516 7.94,1.516 2.53,1.021 4.771,2.549 6.695,4.572 l 4.885,4.735 9.455,-9.602 -4.729,-4.729 c -3.36,-3.349 -7.142,-5.861 -11.367,-7.542 -4.209,-1.682 -8.5,-2.512 -12.879,-2.512 -4.378,0 -8.665,0.83 -12.883,2.512 -4.216,1.681 -7.999,4.193 -11.359,7.542 -3.352,3.356 -5.843,7.114 -7.475,11.293 -1.62,4.149 -2.435,8.452 -2.435,12.872 0,4.426 0.815,8.714 2.435,12.886 C -5.843,-7.112 -3.352,-3.351 0,0"
      style="fill:#ffffff;fill-opacity:1;fill-rule:nonzero;stroke:none"
      id="path3951" />

</svg>